# xmcd
#
# Track frame offsets: 
#        150
#        11524
#        25283
#        38471
#        55567
#        72641
#        84928
#        102378
#        115366
#        125161
#        137307
#        151603
#        164265
#        175204
#        192757
#        221968
#        239468
#        256990
#        267536
#
# Disc length: 3697 seconds
#
# Revision: 0
# Processed by: cddbd v1.4PL0 Copyright (c) Steve Scherf et al.
# Submitted via: ExactAudioCopy v0.90b4
#
DISCID=040e6f13
DTITLE=TianBao - Cowboy Songs
DYEAR=2001
DGENRE=Country
TTITLE0=take me home country road
TTITLE1=cotton field
TTITLE2=beautiful sunday
TTITLE3=don't expect me to be your frient
TTITLE4=palermo blanc
TTITLE5=green leaves of summer
TTITLE6=child
TTITLE7=blowing in the wind
TTITLE8=edelweiss
TTITLE9=el condor pasa
TTITLE10=It never rains in southern california
TTITLE11=today
TTITLE12=venus
TTITLE13=vincent
TTITLE14=hey jude
TTITLE15=my sweet lord
TTITLE16=great pretender
TTITLE17=morning town ride
TTITLE18=jamaica fare well
EXTD=
EXTT0=
EXTT1=
EXTT2=
EXTT3=
EXTT4=
EXTT5=
EXTT6=
EXTT7=
EXTT8=
EXTT9=
EXTT10=
EXTT11=
EXTT12=
EXTT13=
EXTT14=
EXTT15=
EXTT16=
EXTT17=
EXTT18=
PLAYORDER=
